<svg viewBox="0 0 510.236220472 269.291338583" width="510.236220472pt" height="269.291338583pt" xmlns="http://www.w3.org/2000/svg" xmlns:xlink="http://www.w3.org/1999/xlink" xmlns:h5="http://www.w3.org/1999/xhtml"><path fill="#f7f9fc" fill-rule="nonzero" d="M 0 0m 0 11.338582677c 0 -6.262126297 5.07645638 -11.338582677 11.338582677 -11.338582677h 487.559055118c 6.262126297 0 11.338582677 5.07645638 11.338582677 11.338582677v 246.614173228c 0 6.262126297 -5.07645638 11.338582677 -11.338582677 11.338582677h -487.559055118c -6.262126297 0 -11.338582677 -5.07645638 -11.338582677 -11.338582677Z "/><g transform="matrix(1 0 0 -1 28.346456693 33.306519685)"><use xlink:href="#g8D3FB628D07105715BDCFDA1DB94F316" x="0" y="0" fill="#17233c" fill-rule="nonzero"/><use xlink:href="#g8C6BAF3A0BA9509F4258DE886102ED23" x="17" y="0" fill="#17233c" fill-rule="nonzero"/></g><g transform="matrix(1 0 0 -1 62.346456693 33.306519685)"><use xlink:href="#gC185C66694EC75CF6CA76F94D2D6524D" x="0" y="0" fill="#17233c" fill-rule="nonzero"/><use xlink:href="#gE00170B1A4EAF8D4A3FF04EDF46B3387" x="17" y="0" fill="#17233c" fill-rule="nonzero"/><use xlink:href="#gB965995EFD551AC5CC87F63ED170CDFC" x="33.49" y="0" fill="#17233c" fill-rule="nonzero"/><use xlink:href="#g41D62B9CEF04EE9E1B596886433FC902" x="50.49" y="0" fill="#17233c" fill-rule="nonzero"/><use xlink:href="#g8D0F486A4B88477F5BA6CCECFA4A1CC1" x="67.49" y="0" fill="#17233c" fill-rule="nonzero"/><use xlink:href="#g716D6A9C0F4423B2AC82D1BA806CE166" x="84.49" y="0" fill="#17233c" fill-rule="nonzero"/></g><g transform="matrix(1 0 0 -1 163.836456693 33.306519685)"><use xlink:href="#g50272083481D46F316E82F849FAF27C2" x="0" y="0" fill="#17233c" fill-rule="nonzero"/><use xlink:href="#g6632323EFF5CA8D3226C94F89AAA2B93" x="17" y="0" fill="#17233c" fill-rule="nonzero"/><use xlink:href="#g9E9DF6983FE8C1D0ABAD05B9378772FF" x="34" y="0" fill="#17233c" fill-rule="nonzero"/></g><g transform="matrix(1 0 0 -1 414.41776378 29.658519685)"><use xlink:href="#g26DBDB467A56A56B73BA4FEF95AE24FE" x="0" y="0" fill="#71809d" fill-rule="nonzero"/><use xlink:href="#gB3DBDF5C42796D0F7C90AF437421D6B9" x="6.128" y="0" fill="#71809d" fill-rule="nonzero"/><use xlink:href="#gE8D8E6D7D5AB8D826162762A5A362924" x="11.584" y="0" fill="#71809d" fill-rule="nonzero"/></g><g transform="matrix(1 0 0 -1 431.88976378 29.658519685)"><use xlink:href="#g5EEB453DB0EE10C5B81BDB8AC5F565B4" x="2" y="0" fill="#71809d" fill-rule="nonzero"/><use xlink:href="#gC09797CB5524B3B0E687CFC5CF232B50" x="10" y="0" fill="#71809d" fill-rule="nonzero"/></g><g transform="matrix(1 0 0 -1 449.88976378 29.658519685)"><use xlink:href="#g45F2F50F5A9BFB47E403F28FA0BC85F1" x="0" y="0" fill="#71809d" fill-rule="nonzero"/><use xlink:href="#gFCAFE89699CDD2250231F1AD421D729A" x="8" y="0" fill="#71809d" fill-rule="nonzero"/><use xlink:href="#gF9DE24882E0A2A04ABF62D77B837B427" x="16" y="0" fill="#71809d" fill-rule="nonzero"/><use xlink:href="#g4BB3EF6C472F960EA82FEA390BF7ABE5" x="24" y="0" fill="#71809d" fill-rule="nonzero"/></g><g transform="matrix(1 0 0 -1 44.354622047 143.076637293)"><use xlink:href="#g41B85EBFB5FEFFC4C6D4A1E28B947F33" x="0" y="0" fill="#17233c" fill-rule="nonzero"/><use xlink:href="#gE1B2D47562B323445EFC9CDE195FD080" x="6.669" y="0" fill="#17233c" fill-rule="nonzero"/></g><path fill="#4169df" fill-rule="nonzero" transform="translate(28.346456693 147.328605797)" d="M 0 0m 0 5.669291339c 0 -3.131063149 2.53822819 -5.669291339 5.669291339 -5.669291339h 34.015748031c 3.131063149 0 5.669291339 2.53822819 5.669291339 5.669291339v 49.455520188c 0 3.131063149 -2.53822819 5.669291339 -5.669291339 5.669291339h -34.015748031c -3.131063149 0 -5.669291339 -2.53822819 -5.669291339 -5.669291339Z "/><g transform="matrix(1 0 0 -1 42.370122047 219.313677165)"><use xlink:href="#g48DC3707E8C02755D783FCD6A22EE7C1" x="0" y="0" fill="#465570" fill-rule="nonzero"/><use xlink:href="#gBCC72D9DE211361055809C022C7C6341" x="8.307" y="0" fill="#465570" fill-rule="nonzero"/></g><g transform="matrix(1 0 0 -1 103.882181102 119.916979058)"><use xlink:href="#g2AEF5B25AFD03A72AE0AB836B3368B6A" x="0" y="0" fill="#17233c" fill-rule="nonzero"/><use xlink:href="#g9D348D1DD39FF24D45FB41DFC6929E0A" x="6.669" y="0" fill="#17233c" fill-rule="nonzero"/></g><path fill="#4169df" fill-rule="nonzero" transform="translate(87.874015748 124.168947562)" d="M 0 0m 0 5.669291339c 0 -3.131063149 2.53822819 -5.669291339 5.669291339 -5.669291339h 34.015748031c 3.131063149 0 5.669291339 2.53822819 5.669291339 5.669291339v 72.615178422c 0 3.131063149 -2.53822819 5.669291339 -5.669291339 5.669291339h -34.015748031c -3.131063149 0 -5.669291339 -2.53822819 -5.669291339 -5.669291339Z "/><g transform="matrix(1 0 0 -1 101.897681102 219.313677165)"><use xlink:href="#g852000EFC34CFFDCF1CC5F7461DF1931" x="0" y="0" fill="#465570" fill-rule="nonzero"/><use xlink:href="#gBCC72D9DE211361055809C022C7C6341" x="8.307" y="0" fill="#465570" fill-rule="nonzero"/></g><g transform="matrix(1 0 0 -1 163.409740157 130.049329536)"><use xlink:href="#g2AEF5B25AFD03A72AE0AB836B3368B6A" x="0" y="0" fill="#17233c" fill-rule="nonzero"/><use xlink:href="#g549DC38708F244BDC156D47AF33BCC53" x="6.669" y="0" fill="#17233c" fill-rule="nonzero"/></g><path fill="#4169df" fill-rule="nonzero" transform="translate(147.401574803 134.30129804)" d="M 0 0m 0 5.669291339c 0 -3.131063149 2.53822819 -5.669291339 5.669291339 -5.669291339h 34.015748031c 3.131063149 0 5.669291339 2.53822819 5.669291339 5.669291339v 62.482827944c 0 3.131063149 -2.53822819 5.669291339 -5.669291339 5.669291339h -34.015748031c -3.131063149 0 -5.669291339 -2.53822819 -5.669291339 -5.669291339Z "/><g transform="matrix(1 0 0 -1 161.425240157 219.313677165)"><use xlink:href="#gD8F5C49CE2DAD378408C9ACD0388FEA0" x="0" y="0" fill="#465570" fill-rule="nonzero"/><use xlink:href="#gBCC72D9DE211361055809C022C7C6341" x="8.307" y="0" fill="#465570" fill-rule="nonzero"/></g><g transform="matrix(1 0 0 -1 222.937299213 99.652278104)"><use xlink:href="#g6621CBA9930A61343FDA0558BFD5DCEE" x="0" y="0" fill="#17233c" fill-rule="nonzero"/><use xlink:href="#gE1B2D47562B323445EFC9CDE195FD080" x="6.669" y="0" fill="#17233c" fill-rule="nonzero"/></g><path fill="#4169df" fill-rule="nonzero" transform="translate(206.929133858 103.904246607)" d="M 0 0m 0 5.669291339c 0 -3.131063149 2.53822819 -5.669291339 5.669291339 -5.669291339h 34.015748031c 3.131063149 0 5.669291339 2.53822819 5.669291339 5.669291339v 92.879879377c 0 3.131063149 -2.53822819 5.669291339 -5.669291339 5.669291339h -34.015748031c -3.131063149 0 -5.669291339 -2.53822819 -5.669291339 -5.669291339Z "/><g transform="matrix(1 0 0 -1 220.943799213 219.313677165)"><use xlink:href="#gF305C1051184C7F7BE29A9395229434" x="0" y="0" fill="#465570" fill-rule="nonzero"/><use xlink:href="#gBCC72D9DE211361055809C022C7C6341" x="8.325" y="0" fill="#465570" fill-rule="nonzero"/></g><g transform="matrix(1 0 0 -1 282.464858268 79.387577149)"><use xlink:href="#g9D348D1DD39FF24D45FB41DFC6929E0A" x="0" y="0" fill="#17233c" fill-rule="nonzero"/><use xlink:href="#g95C512E80E08B95DC2C25260CBCD19EE" x="6.669" y="0" fill="#17233c" fill-rule="nonzero"/></g><path fill="#4169df" fill-rule="nonzero" transform="translate(266.456692913 83.639545653)" d="M 0 0m 0 5.669291339c 0 -3.131063149 2.53822819 -5.669291339 5.669291339 -5.669291339h 34.015748031c 3.131063149 0 5.669291339 2.53822819 5.669291339 5.669291339v 113.144580332c 0 3.131063149 -2.53822819 5.669291339 -5.669291339 5.669291339h -34.015748031c -3.131063149 0 -5.669291339 -2.53822819 -5.669291339 -5.669291339Z "/><g transform="matrix(1 0 0 -1 280.480358268 219.313677165)"><use xlink:href="#gE9512D4818C48A9E668327BC7C2B14E4" x="0" y="0" fill="#465570" fill-rule="nonzero"/><use xlink:href="#gBCC72D9DE211361055809C022C7C6341" x="8.307" y="0" fill="#465570" fill-rule="nonzero"/></g><g transform="matrix(1 0 0 -1 341.992417323 67.807748031)"><use xlink:href="#g7C8A2A79A7C108937BD0C922C8D447D3" x="0" y="0" fill="#17233c" fill-rule="nonzero"/><use xlink:href="#g41B85EBFB5FEFFC4C6D4A1E28B947F33" x="6.669" y="0" fill="#17233c" fill-rule="nonzero"/></g><path fill="#4169df" fill-rule="nonzero" transform="translate(325.984251969 72.059716535)" d="M 0 0m 0 5.669291339c 0 -3.131063149 2.53822819 -5.669291339 5.669291339 -5.669291339h 34.015748031c 3.131063149 0 5.669291339 2.53822819 5.669291339 5.669291339v 124.724409449c 0 3.131063149 -2.53822819 5.669291339 -5.669291339 5.669291339h -34.015748031c -3.131063149 0 -5.669291339 -2.53822819 -5.669291339 -5.669291339Z "/><g transform="matrix(1 0 0 -1 340.007917323 219.313677165)"><use xlink:href="#g9CDA2C6032A6EC08B5C0A37A8ABE3792" x="0" y="0" fill="#465570" fill-rule="nonzero"/><use xlink:href="#gBCC72D9DE211361055809C022C7C6341" x="8.307" y="0" fill="#465570" fill-rule="nonzero"/></g><defs><symbol id="g8D3FB628D07105715BDCFDA1DB94F316" overflow="visible"><path d="M 0 0m 12.172 3.774v -2.601c 0 -0.323 -0.119 -0.408 -0.612 -0.408c -0.68 0 -1.649 0.068 -2.567 0.204c 0.34 -0.816 0.459 -1.309 0.595 -2.261c 0.833 -0.034 1.428 -0.051 1.955 -0.051c 1.241 0 1.802 0.102 2.227 0.374c 0.493 0.34 0.68 0.85 0.68 1.836v 10.914c 0 1.071 0.017 1.564 0.068 2.023c -0.544 -0.068 -1.037 -0.085 -2.04 -0.085h -7.361c -0.918 0 -1.445 0.017 -2.091 0.085c 0.068 -0.612 0.102 -1.326 0.102 -2.635c 0 -6.987 -0.408 -8.772 -2.414 -10.863c 0.765 -0.595 1.258 -1.088 1.87 -1.87c 1.394 1.615 2.108 3.179 2.465 5.338Z m -6.885 2.04c 0.051 0.748 0.085 1.36 0.119 1.938h 6.766v -1.938Z m 0.136 3.978v 1.785h 6.749v -1.785Z "/></symbol><symbol id="g8C6BAF3A0BA9509F4258DE886102ED23" overflow="visible"><path d="M 0 0m 6.664 4.556c -0.017 -1.649 -0.085 -2.669 -0.238 -3.247c -0.068 -0.289 -0.255 -0.391 -0.731 -0.391c -0.476 0 -0.952 0.051 -1.7 0.153c 0.306 -0.731 0.425 -1.241 0.527 -2.227c 0.68 -0.051 1.105 -0.068 1.445 -0.068c 1.598 0 2.159 0.289 2.448 1.309c 0.255 0.85 0.425 3.026 0.425 5.253c 0 0.697 0.017 0.918 0.051 1.258c -0.476 -0.051 -0.969 -0.085 -1.632 -0.085h -2.295c 0.034 0.408 0.034 0.578 0.051 1.428h 1.632c 1.003 0 1.649 -0.017 2.244 -0.068c -0.034 0.391 -0.051 0.714 -0.051 1.87v 2.329c 0 0.901 0.017 1.224 0.085 1.887c -0.544 -0.051 -1.071 -0.068 -2.193 -0.068h -3.519c -1.02 0 -1.615 0.017 -2.227 0.068c 0.068 -0.663 0.085 -1.054 0.085 -1.955v -2.142c 0 -0.918 -0.017 -1.343 -0.085 -2.006c 0.561 0.068 0.867 0.068 1.836 0.085c -0.034 -1.445 -0.102 -2.261 -0.323 -3.349c -0.357 -1.87 -0.901 -2.89 -2.159 -3.978c 0.697 -0.714 0.952 -1.054 1.479 -2.04c 0.918 0.884 1.411 1.53 1.921 2.567c 0.493 0.986 0.765 1.887 1.003 3.417Z m -3.434 7.429h 3.485v -2.125h -3.485Z m 6.732 1.292c 0.068 -0.544 0.085 -1.139 0.085 -2.125v -6.409c 0 -1.139 -0.017 -1.496 -0.085 -2.006h 2.295c -0.068 0.544 -0.085 0.969 -0.085 2.057v 6.358c 0 1.003 0.017 1.564 0.085 2.125Z m 3.604 0.952c 0.068 -0.765 0.102 -1.598 0.102 -2.397v -10.37c 0 -0.391 -0.187 -0.51 -0.833 -0.51c -0.561 0 -1.275 0.051 -2.346 0.153c 0.34 -0.799 0.51 -1.343 0.68 -2.261c 0.697 -0.017 0.986 -0.034 1.36 -0.034c 1.156 0 1.972 0.085 2.431 0.272c 0.612 0.221 0.884 0.833 0.884 1.972v 10.778c 0 1.003 0.034 1.649 0.102 2.397Z "/></symbol><symbol id="gC185C66694EC75CF6CA76F94D2D6524D" overflow="visible"><path d="M 0 0m 10.03 12.138c 0.595 -0.748 1.105 -1.598 1.513 -2.516l 1.479 0.731c -0.425 0.952 -0.85 1.615 -1.513 2.431Z m 2.023 0.901c 0.595 -0.748 1.071 -1.547 1.496 -2.414l 1.479 0.731c -0.527 1.003 -0.816 1.462 -1.547 2.346Z m -5.27 -13.94c -0.068 0.646 -0.102 1.275 -0.102 2.363v 4.896c 0.255 -0.136 0.323 -0.17 0.646 -0.306c 1.955 -0.85 4.182 -2.057 5.695 -3.094l 1.394 2.448c -2.771 1.615 -5.1 2.669 -7.735 3.57v 2.584c 0 1.241 0.017 1.632 0.102 2.278h -2.771c 0.085 -0.595 0.102 -1.071 0.102 -2.278v -10.064c 0 -1.156 -0.017 -1.751 -0.102 -2.397Z "/></symbol><symbol id="gE00170B1A4EAF8D4A3FF04EDF46B3387" overflow="visible"><path d="M 0 0m 6.341 10.71l -2.652 -0.408c -1.241 -0.187 -1.547 -0.221 -2.295 -0.238l 0.391 -2.482c 0.935 0.221 1.122 0.272 2.312 0.459l 2.652 0.408l 0.442 -2.499l -3.57 -0.561c -1.122 -0.17 -1.547 -0.221 -2.244 -0.238l 0.408 -2.465c 0.697 0.204 1.088 0.272 2.142 0.442l 3.672 0.578l 0.476 -2.601c 0.204 -1.088 0.306 -1.887 0.323 -2.38l 2.754 0.459c -0.221 0.68 -0.306 1.054 -0.544 2.38l -0.476 2.533l 3.451 0.527c 1.632 0.272 1.632 0.272 2.227 0.306l -0.425 2.448c -0.697 -0.221 -1.156 -0.323 -2.278 -0.493l -3.4 -0.544l -0.459 2.482l 2.992 0.476c 1.394 0.204 1.394 0.204 2.142 0.272l -0.408 2.448c -0.663 -0.204 -1.054 -0.289 -2.159 -0.459l -2.992 -0.459l -0.204 1.003c -0.17 0.918 -0.238 1.411 -0.255 1.955l -2.669 -0.425c 0.204 -0.544 0.204 -0.544 0.459 -1.955Z "/></symbol><symbol id="gB965995EFD551AC5CC87F63ED170CDFC" overflow="visible"><path d="M 0 0m 11.322 1.717c 0.34 1.921 0.595 3.604 0.816 5.423c 0.068 0.578 0.102 0.714 0.306 1.139l -1.105 0.952c -0.391 -0.136 -0.578 -0.17 -1.122 -0.17h -4.114c -1.037 0 -1.326 0.017 -2.006 0.102v -2.244c 0.612 0.051 0.918 0.068 1.938 0.068h 3.672c -0.17 -1.683 -0.425 -3.332 -0.782 -5.27h -4.522c -1.088 0 -1.394 0.017 -2.006 0.102v -2.244c 0.493 0.051 1.105 0.068 2.006 0.068h 8.194c 0.85 0 1.564 -0.017 2.006 -0.068v 2.244c -0.544 -0.085 -0.952 -0.102 -1.989 -0.102Z "/></symbol><symbol id="g41D62B9CEF04EE9E1B596886433FC902" overflow="visible"><path d="M 0 0m 11.305 13.804c -0.238 -1.241 -1.309 -3.723 -2.329 -5.355c -2.023 1.462 -2.669 1.904 -4.131 2.771l -1.785 -1.768c 1.445 -0.816 2.584 -1.598 4.488 -3.06c -0.612 -0.765 -1.241 -1.428 -1.989 -2.108c -1.343 -1.207 -2.516 -1.972 -4.505 -2.958c 0.969 -0.867 1.241 -1.207 1.768 -2.125c 2.924 1.632 4.998 3.366 6.647 5.542c 1.53 -1.411 2.448 -2.38 3.349 -3.553l 1.955 2.057c -1.513 1.615 -2.21 2.278 -3.774 3.604c 0.748 1.156 1.326 2.295 2.363 4.743c 0.34 0.782 0.425 0.952 0.629 1.309Z "/></symbol><symbol id="g8D0F486A4B88477F5BA6CCECFA4A1CC1" overflow="visible"><path d="M 0 0m 1.802 10.846c 1.632 -0.901 3.06 -2.023 4.471 -3.519l 1.717 2.227c -1.36 1.258 -2.329 1.972 -4.522 3.298Z m 0.816 -11.322c 0.357 0.119 0.459 0.153 0.85 0.238c 0.323 0.068 0.323 0.068 0.748 0.153c 1.632 0.357 3.587 1.054 4.947 1.768c 2.958 1.564 4.964 3.808 6.647 7.446c -1.054 0.748 -1.36 1.037 -2.159 1.972c -0.493 -1.326 -0.952 -2.244 -1.717 -3.383c -1.326 -1.989 -2.839 -3.264 -4.998 -4.165c -1.564 -0.68 -3.502 -1.139 -5.066 -1.241Z "/></symbol><symbol id="g716D6A9C0F4423B2AC82D1BA806CE166" overflow="visible"><path d="M 0 0m 7.106 -0.901c -0.068 0.646 -0.102 1.275 -0.102 2.363v 4.896c 0.255 -0.136 0.323 -0.17 0.646 -0.306c 1.955 -0.85 4.182 -2.057 5.695 -3.094l 1.394 2.448c -2.771 1.615 -5.1 2.669 -7.735 3.57v 2.584c 0 1.241 0.017 1.632 0.102 2.278h -2.771c 0.085 -0.595 0.102 -1.071 0.102 -2.278v -10.064c 0 -1.156 -0.017 -1.751 -0.102 -2.397Z "/></symbol><symbol id="g50272083481D46F316E82F849FAF27C2" overflow="visible"><path d="M 0 0m 7.548 9.095v -2.839h -2.431c -0.969 0 -1.547 0.017 -2.142 0.085v -2.21c 0.646 0.068 1.326 0.102 2.176 0.102h 2.397v -3.162h -4.063c -0.918 0 -1.751 0.034 -2.516 0.119v -2.295c 0.85 0.085 1.666 0.119 2.584 0.119h 10.166c 0.918 0 1.632 -0.034 2.482 -0.119v 2.295c -0.748 -0.085 -1.53 -0.119 -2.533 -0.119h -3.825v 3.162h 2.754c 0.833 0 1.53 -0.034 2.227 -0.102v 2.227c -0.646 -0.068 -1.377 -0.102 -2.244 -0.102h -2.737v 2.839h 3.349c 0.867 0 1.564 -0.034 2.397 -0.102v 2.227c -0.731 -0.068 -1.564 -0.102 -2.465 -0.102h -3.281v 1.037c 0 1.003 0.017 1.581 0.102 2.142h -2.516c 0.085 -0.612 0.119 -1.173 0.119 -2.159v -1.02h -2.414c 0.136 0.408 0.272 0.816 0.357 1.105c 0.136 0.425 0.136 0.442 0.187 0.578c 0.119 0.323 0.119 0.323 0.153 0.442l -2.278 0.561c -0.051 -0.493 -0.153 -0.952 -0.34 -1.581c -0.561 -1.904 -1.53 -3.621 -2.771 -4.862c 0.714 -0.612 0.986 -0.935 1.53 -1.802c 0.935 1.071 1.649 2.142 2.312 3.536Z "/></symbol><symbol id="g6632323EFF5CA8D3226C94F89AAA2B93" overflow="visible"><path d="M 0 0m 13.311 9.129c -0.153 -1.054 -0.595 -2.227 -1.377 -3.689c -0.323 1.224 -0.51 2.618 -0.646 4.641h 2.805c 0.833 0 1.53 -0.034 2.142 -0.102v 2.193c -0.476 -0.068 -0.884 -0.085 -1.785 -0.085h -0.442l 0.969 0.646c -0.561 0.663 -1.088 1.19 -1.666 1.649l -1.581 -0.986c 0.714 -0.561 0.867 -0.697 1.377 -1.309h -1.887c -0.017 0.34 -0.017 0.782 -0.017 0.816c 0 0.442 0.051 1.071 0.102 1.394h -2.38c 0.068 -0.374 0.068 -0.374 0.119 -2.21h -4.879c -0.901 0 -1.615 0.034 -2.244 0.085c 0.085 -0.731 0.102 -1.258 0.102 -2.55c 0 -2.941 -0.187 -5.321 -0.544 -6.766c -0.255 -1.054 -0.527 -1.683 -1.105 -2.55c 0.714 -0.561 1.088 -0.935 1.734 -1.768c 0.85 1.275 1.309 2.516 1.632 4.437c 0.255 -0.629 0.374 -1.173 0.493 -2.006c 0.408 -0.017 0.68 -0.017 0.799 -0.017c 0.34 0 0.799 0.017 1.122 0.068c 0.663 0.068 0.952 0.17 1.258 0.459c 0.476 0.476 0.68 1.343 0.782 3.332c 0.136 2.907 0.136 2.907 0.187 3.281c -0.374 -0.034 -0.561 -0.051 -1.173 -0.051h -3.043c 0.017 0.731 0.017 1.071 0.017 2.04h 4.947c 0.204 -3.145 0.527 -4.913 1.275 -6.783c -1.156 -1.19 -2.448 -2.057 -4.131 -2.771c 0.646 -0.595 0.867 -0.867 1.496 -1.785c 1.513 0.867 2.55 1.632 3.604 2.669c 1.088 -1.615 2.244 -2.55 3.196 -2.55c 0.544 0 0.935 0.306 1.275 0.986c 0.323 0.646 0.476 1.173 0.714 2.465c -0.765 0.442 -1.088 0.697 -1.734 1.326c -0.221 -1.649 -0.357 -2.261 -0.527 -2.261c -0.017 0 -0.068 0.017 -0.119 0.068c 0 0 -0.068 0.068 -0.187 0.17c -0.34 0.272 -0.748 0.816 -1.156 1.564c 0.493 0.697 0.867 1.343 1.258 2.108c 0.34 0.663 0.816 1.7 1.003 2.176c 0.17 0.425 0.255 0.612 0.357 0.867Z m -7.174 -3.043c -0.051 -1.989 -0.068 -2.193 -0.221 -2.686c -0.102 -0.357 -0.255 -0.442 -0.731 -0.442c -0.374 0 -0.646 0.034 -1.428 0.136c 0.153 0.935 0.238 1.734 0.323 2.992Z "/></symbol><symbol id="g9E9DF6983FE8C1D0ABAD05B9378772FF" overflow="visible"><path d="M 0 0m 16.592 11.696c -0.391 -0.068 -0.782 -0.085 -1.615 -0.085h -2.703c 0.153 0.561 0.187 0.646 0.272 1.003c 0.238 0.969 0.323 1.292 0.357 1.411l -2.21 0.425c 0 -0.255 -0.085 -0.918 -0.204 -1.479c -0.51 -2.584 -1.309 -4.42 -2.516 -5.78c 0.442 -0.408 0.731 -0.731 1.139 -1.326c -0.272 -0.034 -0.612 -0.051 -1.088 -0.051h -2.499c 0.119 0.272 0.17 0.374 0.323 0.714l -2.108 0.374c -0.187 -0.527 -0.255 -0.731 -0.391 -1.088h -1.207c -0.646 0 -1.003 0.017 -1.394 0.085v -2.023c 0.408 0.068 0.782 0.085 1.394 0.085h 0.323c -0.374 -0.629 -0.561 -0.918 -1.139 -1.666c 1.207 -0.425 1.649 -0.612 2.465 -0.969c -0.969 -0.544 -1.768 -0.799 -3.179 -1.003c 0.442 -0.612 0.748 -1.139 1.037 -1.87c 1.768 0.425 2.924 0.969 4.063 1.921c 0.799 -0.442 1.003 -0.578 1.632 -1.071l 0.561 0.901c 0.459 -0.476 0.816 -0.986 1.156 -1.734c 1.326 0.714 2.465 1.598 3.502 2.754c 0.918 -1.139 1.938 -2.023 3.111 -2.72c 0.357 0.867 0.68 1.445 1.173 2.142c -1.19 0.595 -2.159 1.36 -2.992 2.38c 1.037 1.87 1.496 3.638 1.717 6.63c 0.561 -0.017 0.697 -0.017 1.02 -0.068Z m -8.075 -10.489c -0.646 0.357 -0.884 0.493 -1.411 0.731c 0.442 0.68 0.663 1.173 0.918 2.023c 0.578 0 0.986 -0.034 1.309 -0.068v 1.683c 0.374 0.442 0.459 0.561 0.731 1.003c 0.306 -1.411 0.646 -2.363 1.292 -3.553c -0.884 -1.037 -1.87 -1.802 -3.264 -2.499Z m 4.947 8.449c -0.085 -1.853 -0.357 -3.281 -0.884 -4.59c -0.663 1.445 -0.901 2.295 -1.173 4.063c 0.085 0.221 0.119 0.306 0.204 0.527Z m -7.531 -5.695c -0.17 -0.51 -0.306 -0.816 -0.612 -1.241c -0.374 0.153 -0.595 0.221 -1.224 0.442c 0.255 0.408 0.323 0.527 0.476 0.799Z m 2.023 7.378h -1.734v 1.921c 0 0.51 0.017 0.799 0.068 1.105h -2.159c 0.051 -0.323 0.068 -0.612 0.068 -1.139v -1.887h -1.938c -0.663 0 -1.037 0.017 -1.462 0.068v -1.87c 0.408 0.051 0.85 0.068 1.462 0.068h 0.714c -0.68 -0.782 -1.394 -1.292 -2.567 -1.836c 0.612 -0.646 0.833 -0.952 1.224 -1.649c 1.207 0.799 1.632 1.207 2.584 2.414c -0.017 -0.272 -0.034 -0.561 -0.034 -0.697v -0.493c 0 -0.153 -0.017 -0.323 -0.051 -0.493h 2.125c -0.034 0.187 -0.034 0.391 -0.034 0.578v 0.476c 0 0.102 -0.034 0.442 -0.051 0.629c 0.476 -0.714 0.578 -0.816 1.411 -1.513c 0.357 0.697 0.595 1.054 1.037 1.598c -0.612 0.323 -0.986 0.595 -1.36 0.986h 0.952c 0.527 0 0.85 -0.017 1.071 -0.051v 1.836c -0.204 -0.034 -0.527 -0.051 -1.054 -0.051h -0.119c 0.493 0.748 0.68 1.105 1.241 2.227l -1.802 0.731c -0.289 -0.799 -0.646 -1.445 -1.19 -2.227Z m -6.902 2.193c 0.544 -0.697 0.867 -1.241 1.258 -2.159l 1.734 0.748c -0.391 0.85 -0.646 1.275 -1.292 2.125Z "/></symbol><symbol id="g26DBDB467A56A56B73BA4FEF95AE24FE" overflow="visible"><path d="M 0 0m 5.68 4.568c -0.192 0.512 -0.344 0.768 -0.648 1.064c -0.456 0.44 -1.064 0.656 -1.832 0.656c -0.768 0 -1.384 -0.232 -1.856 -0.688c -0.608 -0.592 -0.944 -1.48 -0.944 -2.528c 0 -1.008 0.312 -1.888 0.872 -2.456c 0.464 -0.48 1.128 -0.728 1.92 -0.728c 0.904 0 1.656 0.328 2.104 0.912c 0.208 0.272 0.32 0.528 0.464 1.024l -0.8 0.168c -0.072 -0.36 -0.144 -0.552 -0.312 -0.784c -0.304 -0.416 -0.816 -0.648 -1.432 -0.648c -1.24 0 -2.032 0.984 -2.032 2.536c 0 1.552 0.776 2.52 2.032 2.52c 0.552 0 1.016 -0.192 1.32 -0.552c 0.168 -0.2 0.256 -0.36 0.368 -0.704Z "/></symbol><symbol id="gB3DBDF5C42796D0F7C90AF437421D6B9" overflow="visible"><path d="M 0 0m 0.416 1.768c 0.08 -0.56 0.176 -0.824 0.408 -1.12c 0.376 -0.488 1.064 -0.752 1.968 -0.752c 1.408 0 2.224 0.672 2.224 1.832c 0 0.528 -0.176 0.92 -0.56 1.216c -0.272 0.224 -0.672 0.384 -1.288 0.512c -0.904 0.192 -0.936 0.208 -1.144 0.288c -0.432 0.176 -0.648 0.456 -0.648 0.856c 0 0.608 0.544 1.024 1.336 1.024c 0.496 0 0.888 -0.152 1.136 -0.44c 0.144 -0.176 0.208 -0.328 0.264 -0.632l 0.808 0.104c -0.088 0.408 -0.176 0.624 -0.36 0.864c -0.368 0.496 -1.008 0.76 -1.832 0.76c -1.288 0 -2.12 -0.672 -2.12 -1.704c 0 -0.56 0.24 -0.984 0.712 -1.272c 0.28 -0.176 0.6 -0.288 1.12 -0.408c 1.016 -0.224 1.088 -0.24 1.344 -0.384c 0.288 -0.16 0.448 -0.448 0.448 -0.824c 0 -0.704 -0.552 -1.128 -1.456 -1.128c -0.576 0 -1.04 0.192 -1.296 0.528c -0.152 0.216 -0.216 0.392 -0.24 0.768Z "/></symbol><symbol id="gE8D8E6D7D5AB8D826162762A5A362924" overflow="visible"><path d="M 0 0m 1.296 5.344c -0.104 0.288 -0.176 0.568 -0.224 0.824h -0.968c 0.096 -0.168 0.232 -0.48 0.408 -0.936l 1.712 -4.464c 0.152 -0.408 0.216 -0.592 0.256 -0.768h 0.944c 0.04 0.176 0.112 0.408 0.248 0.768l 1.712 4.464c 0.2 0.528 0.288 0.728 0.408 0.936h -0.968c -0.032 -0.224 -0.088 -0.432 -0.232 -0.824l -1.448 -4.056c -0.064 -0.168 -0.096 -0.264 -0.192 -0.576c -0.088 0.288 -0.152 0.48 -0.184 0.576Z "/></symbol><symbol id="g5EEB453DB0EE10C5B81BDB8AC5F565B4" overflow="visible"><path d="M 0 0m 0.728 3.784c 0.352 0.096 0.688 0.16 1.552 0.28c -0.256 -1.016 -0.48 -1.664 -0.848 -2.456c -0.272 -0.6 -0.592 -1.16 -0.832 -1.464l 0.656 -0.376c 0.24 0.448 0.408 0.784 0.52 1.008c 0.528 1.08 0.872 2.056 1.176 3.344c 0.232 0.024 0.376 0.032 0.544 0.032c 0.712 0 0.936 -0.256 0.936 -1.072c 0 -0.888 -0.12 -1.704 -0.32 -2.184c -0.104 -0.24 -0.256 -0.36 -0.448 -0.36c -0.28 0 -0.736 0.144 -1.176 0.36c 0.032 -0.192 0.04 -0.296 0.04 -0.448c 0 -0.096 0 -0.136 -0.016 -0.272c 0.52 -0.208 0.872 -0.296 1.208 -0.296c 0.384 0 0.616 0.104 0.816 0.368c 0.344 0.456 0.56 1.528 0.56 2.8c 0 0.68 -0.104 1.048 -0.384 1.328c -0.248 0.248 -0.608 0.36 -1.152 0.36c -0.176 0 -0.296 -0.008 -0.488 -0.024c 0.04 0.192 0.128 0.696 0.168 0.912c 0.072 0.448 0.096 0.584 0.144 0.744l -0.752 0.08c 0 -0.048 0 -0.088 0 -0.104c 0 -0.328 -0.096 -1.024 -0.224 -1.68c -0.672 -0.104 -1.472 -0.192 -1.76 -0.2Z m 4.704 1.144c 0.76 -0.792 1.312 -1.808 1.608 -2.96l 0.632 0.336c -0.36 1.152 -0.864 2.024 -1.664 2.912Z "/></symbol><symbol id="gC09797CB5524B3B0E687CFC5CF232B50" overflow="visible"><path d="M 0 0m 2.472 5.784c 0.704 -0.328 0.704 -0.328 1.264 -0.52c 0.488 -0.16 0.808 -0.256 1.616 -0.456l 0.256 0.656c -0.864 0.136 -2.224 0.568 -2.792 0.888Z m -0.656 -0.824c -0.008 -0.152 -0.016 -0.224 -0.056 -0.44c -0.144 -0.904 -0.256 -1.632 -0.336 -2.24c -0.032 -0.272 -0.04 -0.328 -0.064 -0.472l 0.736 -0.024c 0.12 0.16 0.192 0.232 0.328 0.336c 0.584 0.416 1.376 0.664 2.168 0.664c 0.936 0 1.496 -0.368 1.496 -0.984c 0 -0.776 -0.832 -1.296 -2.072 -1.296c -0.688 0 -1.432 0.144 -2.088 0.4c 0.056 -0.272 0.072 -0.384 0.072 -0.56v -0.088c 0 -0.04 0 -0.072 0 -0.104c 0.944 -0.24 1.328 -0.296 2.032 -0.296c 0.856 0 1.504 0.168 2.016 0.528c 0.472 0.328 0.76 0.872 0.76 1.424c 0 0.952 -0.848 1.584 -2.12 1.584c -0.888 0 -1.76 -0.24 -2.304 -0.64c -0.12 -0.088 -0.168 -0.128 -0.28 -0.248l -0.008 0.008c 0.016 0.072 0.024 0.088 0.04 0.184c 0.144 1.048 0.296 1.856 0.4 2.216Z "/></symbol><symbol id="g45F2F50F5A9BFB47E403F28FA0BC85F1" overflow="visible"><path d="M 0 0m 2.224 5.656c -0.44 0 -0.68 0.008 -0.952 0.04c 0.032 -0.28 0.04 -0.512 0.04 -0.992v -4.312c 0 -0.44 -0.016 -0.696 -0.048 -0.928h 0.656v 0.448h 4.144v -0.448h 0.656c -0.04 0.232 -0.048 0.448 -0.048 0.92v 4.32c 0 0.496 0.008 0.728 0.04 0.992c -0.28 -0.032 -0.52 -0.04 -0.968 -0.04h -1.904c 0.152 0.296 0.264 0.56 0.44 1l -0.696 0.104c -0.104 -0.416 -0.216 -0.72 -0.416 -1.104Z m -0.304 -0.568h 4.144v -1.12h -4.144Z m 0 -1.68h 4.144v -1.152h -4.144Z m 0 -1.712h 4.144v -1.216h -4.144Z "/></symbol><symbol id="gFCAFE89699CDD2250231F1AD421D729A" overflow="visible"><path d="M 0 0m 2.208 5.256h -1.056c -0.312 0 -0.504 0.008 -0.72 0.04v -0.56c 0.208 0.032 0.384 0.04 0.712 0.04h 1.064v -0.448h -0.736c -0.336 0 -0.552 0.008 -0.76 0.024c 0.016 -0.24 0.024 -0.312 0.024 -0.712v -0.968c 0 -0.392 -0.008 -0.552 -0.024 -0.752c 0.208 0.016 0.408 0.024 0.744 0.024h 0.752v -0.48h -0.872c -0.344 0 -0.536 0.008 -0.728 0.04v -0.568c 0.2 0.024 0.48 0.04 0.728 0.04h 0.872v -0.576c -0.72 -0.056 -1.2 -0.088 -1.488 -0.088c -0.104 0 -0.208 0 -0.344 0.016l 0.112 -0.64c 0.16 0.032 0.224 0.04 0.432 0.056c 1.632 0.16 2.016 0.208 3.296 0.416c -0.12 -0.136 -0.168 -0.192 -0.328 -0.352c 0.224 -0.112 0.464 -0.28 0.544 -0.392c 0.64 0.792 0.968 1.416 1.208 2.344c 0.176 0.656 0.264 1.44 0.32 2.584h 0.888c -0.016 -2.016 -0.112 -3.4 -0.272 -3.928c -0.072 -0.248 -0.152 -0.296 -0.456 -0.296c -0.2 0 -0.392 0.024 -0.808 0.104c 0.08 -0.224 0.112 -0.408 0.12 -0.632c 0.296 -0.032 0.592 -0.048 0.776 -0.048c 0.712 0 0.896 0.208 1.024 1.152c 0.112 0.824 0.152 1.512 0.192 3.4c 0.016 0.48 0.024 0.656 0.048 0.84c -0.232 -0.024 -0.408 -0.032 -0.728 -0.032h -0.768c 0.008 0.912 0.008 0.912 0.016 1.056c 0 0.304 0.008 0.472 0.048 0.624h -0.68c 0.048 -0.232 0.056 -0.352 0.056 -0.992c 0 -0.272 -0.008 -0.424 -0.016 -0.688h -0.224c -0.304 0 -0.472 0.008 -0.664 0.032v -0.632c 0.224 0.032 0.4 0.04 0.72 0.04h 0.152c -0.04 -0.976 -0.12 -1.664 -0.272 -2.288c -0.184 -0.736 -0.48 -1.368 -0.88 -1.88v 0.488c -0.776 -0.12 -1.056 -0.16 -1.48 -0.208v 0.52h 0.896c 0.352 0 0.472 -0.008 0.624 -0.032v 0.552c -0.176 -0.024 -0.32 -0.032 -0.728 -0.032h -0.792v 0.48h 0.792c 0.36 0 0.512 -0.008 0.728 -0.016c -0.008 0.096 -0.016 0.352 -0.016 0.744v 0.976c 0 0.416 0 0.552 0.016 0.704c -0.184 -0.016 -0.36 -0.024 -0.688 -0.024h -0.832v 0.448h 1.032c 0.368 0 0.48 -0.008 0.616 -0.032v 0.552c -0.16 -0.032 -0.352 -0.04 -0.712 -0.04h -0.936v 0.584c 0.44 0.072 0.824 0.144 1.256 0.248c 0.168 0.048 0.208 0.056 0.288 0.064l -0.376 0.48c -0.56 -0.272 -2.024 -0.496 -3.384 -0.52c 0.136 -0.232 0.176 -0.312 0.224 -0.48c 0.576 0.032 0.944 0.072 1.448 0.128Z m 0 -1.376v -0.512h -0.936v 0.512Z m 0.544 0h 0.968v -0.512h -0.968Z m -0.544 -0.96v -0.528h -0.936v 0.528Z m 0.544 0h 0.968v -0.528h -0.968Z "/></symbol><symbol id="gF9DE24882E0A2A04ABF62D77B837B427" overflow="visible"><path d="M 0 0m 3.792 4.448v -1.632h -1.4c -0.4 0 -0.648 0.016 -0.872 0.048v -0.664c 0.232 0.032 0.504 0.048 0.88 0.048h 1.392v -1.968h -2.28c -0.392 0 -0.68 0.016 -0.984 0.056v -0.688c 0.336 0.04 0.608 0.056 1 0.056h 5.072c 0.4 0 0.632 -0.016 0.976 -0.056v 0.688c -0.288 -0.04 -0.576 -0.056 -0.992 -0.056h -2.152v 1.968h 1.56c 0.376 0 0.656 -0.016 0.896 -0.048v 0.664c -0.224 -0.032 -0.504 -0.048 -0.896 -0.048h -1.56v 1.632h 1.904c 0.352 0 0.616 -0.016 0.944 -0.048v 0.672c -0.28 -0.032 -0.584 -0.048 -0.96 -0.048h -1.888v 0.776c 0 0.368 0.008 0.616 0.048 0.88h -0.744c 0.04 -0.304 0.056 -0.528 0.056 -0.88v -0.776h -1.56c 0.088 0.232 0.224 0.592 0.264 0.72c 0.064 0.208 0.088 0.28 0.152 0.44l -0.688 0.184c -0.016 -0.232 -0.056 -0.416 -0.176 -0.752c -0.32 -0.968 -0.784 -1.76 -1.408 -2.432c 0.224 -0.128 0.296 -0.184 0.528 -0.424c 0.424 0.504 0.744 1.008 1.08 1.688Z "/></symbol><symbol id="g4BB3EF6C472F960EA82FEA390BF7ABE5" overflow="visible"><path d="M 0 0m 6.416 4.2c -0.088 -0.568 -0.456 -1.416 -0.92 -2.112c -0.256 0.72 -0.424 1.672 -0.48 2.752h 1.616c 0.424 0 0.672 -0.008 0.92 -0.04v 0.64c -0.192 -0.04 -0.416 -0.048 -0.856 -0.048h -1.704c -0.008 0.328 -0.008 0.44 -0.008 0.536c 0 0.312 0.008 0.544 0.04 0.712h -0.704c 0.032 -0.2 0.032 -0.248 0.064 -1.248h -2.352c -0.408 0 -0.696 0.008 -0.984 0.04c 0.04 -0.272 0.048 -0.456 0.048 -0.976c 0 -1.504 -0.08 -2.568 -0.248 -3.288c -0.104 -0.464 -0.264 -0.824 -0.568 -1.256c 0.208 -0.128 0.32 -0.224 0.504 -0.456c 0.328 0.512 0.48 0.864 0.616 1.448c 0.136 0.568 0.216 1.224 0.256 2.152h 1.48c -0.016 -0.664 -0.056 -1.248 -0.104 -1.536c -0.064 -0.312 -0.128 -0.376 -0.392 -0.376c -0.248 0 -0.432 0.024 -0.888 0.112c 0.08 -0.232 0.104 -0.352 0.128 -0.608c 0.304 -0.048 0.528 -0.064 0.776 -0.064c 0.52 0 0.72 0.096 0.84 0.408c 0.104 0.264 0.192 0.928 0.232 1.928c 0.024 0.496 0.024 0.52 0.048 0.712c -0.168 -0.024 -0.296 -0.032 -0.592 -0.032h -1.504c 0.008 0.352 0.008 0.592 0.016 1.24h 2.712c 0.096 -1.448 0.288 -2.408 0.664 -3.296c -0.632 -0.712 -1.376 -1.224 -2.312 -1.6c 0.208 -0.168 0.288 -0.256 0.448 -0.496c 0.864 0.416 1.528 0.896 2.136 1.544c 0.224 -0.376 0.416 -0.632 0.64 -0.856c 0.328 -0.32 0.656 -0.512 0.872 -0.512c 0.392 0 0.624 0.4 0.816 1.416c -0.176 0.096 -0.328 0.208 -0.512 0.4c -0.096 -0.712 -0.224 -1.136 -0.336 -1.136c -0.064 0 -0.208 0.096 -0.352 0.216c -0.296 0.272 -0.472 0.512 -0.712 0.96c 0.384 0.504 0.584 0.856 0.872 1.504c 0.216 0.496 0.216 0.496 0.224 0.52c 0.104 0.248 0.136 0.312 0.192 0.448Z m 0.504 1.608c -0.464 0.416 -0.568 0.504 -1.048 0.8l -0.432 -0.312c 0.504 -0.32 0.664 -0.456 1.056 -0.856Z "/></symbol><symbol id="g41B85EBFB5FEFFC4C6D4A1E28B947F33" overflow="visible"><path d="M 0 0m 0.198 1.395c 0.297 0.027 0.603 0.036 1.143 0.036h 2.511v -0.54c 0 -0.468 -0.018 -0.756 -0.072 -1.08h 1.566c -0.054 0.333 -0.072 0.585 -0.072 1.062v 0.549h 0.252c 0.342 0 0.639 -0.018 0.936 -0.054v 1.386c -0.333 -0.054 -0.612 -0.072 -0.936 -0.072h -0.252v 2.934c 0 0.657 0.018 0.99 0.063 1.512h -1.521c -0.216 -0.342 -0.369 -0.531 -0.783 -1.035l -2.043 -2.448c -0.171 -0.198 -0.432 -0.504 -0.792 -0.909Z m 3.672 1.278h -2.07l 1.566 1.926c 0.234 0.288 0.414 0.513 0.549 0.711c -0.036 -0.495 -0.045 -0.711 -0.045 -0.981Z "/></symbol><symbol id="gE1B2D47562B323445EFC9CDE195FD080" overflow="visible"><path d="M 0 0m 4.716 -0.189c 0.603 0 0.972 -0.018 1.449 -0.063v 1.44c -0.333 -0.054 -0.756 -0.072 -1.377 -0.072h -2.277c 0.117 0.288 0.216 0.441 0.423 0.666c 0.207 0.216 0.621 0.567 0.99 0.828c 1.062 0.738 1.134 0.792 1.35 0.99c 0.522 0.468 0.792 1.017 0.792 1.62c 0 1.26 -1.053 2.061 -2.709 2.061c -0.972 0 -1.728 -0.297 -2.214 -0.855c -0.342 -0.414 -0.504 -0.792 -0.639 -1.521l 1.593 -0.18c 0.054 0.405 0.108 0.603 0.243 0.801c 0.216 0.315 0.576 0.486 1.044 0.486c 0.648 0 1.098 -0.342 1.098 -0.837c 0 -0.468 -0.198 -0.72 -1.026 -1.278c -0.936 -0.639 -1.206 -0.837 -1.539 -1.143c -0.594 -0.54 -1.017 -1.17 -1.251 -1.872c -0.117 -0.324 -0.171 -0.63 -0.216 -1.107c 0.342 0.036 0.486 0.036 1.251 0.036Z "/></symbol><symbol id="g48DC3707E8C02755D783FCD6A22EE7C1" overflow="visible"><path d="M 0 0m 1.431 6.147c 0.288 0.036 0.522 0.054 0.828 0.054h 0.468v -5.139c 0 -0.423 -0.018 -0.729 -0.072 -1.062h 0.999c -0.054 0.351 -0.072 0.63 -0.072 1.062v 4.428c 0 0.495 0.027 0.954 0.081 1.494c -0.306 -0.036 -0.459 -0.045 -0.801 -0.045h -0.639c -0.36 0 -0.54 0.009 -0.792 0.045Z "/></symbol><symbol id="gBCC72D9DE211361055809C022C7C6341" overflow="visible"><path d="M 0 0m 6.651 2.268v -1.863c 0 -0.216 -0.063 -0.261 -0.369 -0.261c -0.387 0 -0.801 0.027 -1.26 0.099c 0.099 -0.279 0.144 -0.441 0.18 -0.729c 0.45 -0.027 0.729 -0.036 0.99 -0.036c 0.513 0 0.72 0.036 0.891 0.135c 0.189 0.126 0.27 0.333 0.27 0.72v 5.868c 0 0.495 0.009 0.693 0.036 0.954c -0.306 -0.036 -0.54 -0.045 -0.963 -0.045h -3.492c -0.396 0 -0.639 0.009 -0.972 0.045c 0.036 -0.324 0.045 -0.72 0.045 -1.494c 0 -2.088 -0.099 -3.168 -0.351 -4.023c -0.216 -0.72 -0.495 -1.17 -1.044 -1.71c 0.261 -0.189 0.414 -0.342 0.585 -0.576c 0.504 0.567 0.774 0.999 1.008 1.62c 0.153 0.396 0.261 0.81 0.342 1.296Z m -4.023 0.657c 0.054 0.702 0.081 1.116 0.081 1.485h 3.942v -1.485Z m 0.09 2.142v 1.386h 3.933v -1.386Z "/></symbol><symbol id="g2AEF5B25AFD03A72AE0AB836B3368B6A" overflow="visible"><path d="M 0 0m 2.34 5.913h 2.097c 0.531 0 0.927 -0.018 1.35 -0.072v 1.35c -0.423 -0.054 -0.657 -0.063 -1.368 -0.063h -2.358c -0.495 0 -0.693 0.009 -1.017 0.036c -0.009 -0.549 -0.009 -0.612 -0.036 -0.954l -0.207 -2.322c -0.036 -0.369 -0.054 -0.513 -0.126 -0.927l 1.404 -0.135c 0.081 0.198 0.135 0.279 0.252 0.396c 0.252 0.225 0.612 0.351 1.017 0.351c 0.801 0 1.323 -0.522 1.323 -1.323c 0 -0.819 -0.549 -1.35 -1.377 -1.35c -0.45 0 -0.801 0.144 -1.026 0.423c -0.117 0.135 -0.171 0.252 -0.252 0.504l -1.512 -0.27c 0.198 -0.558 0.342 -0.819 0.63 -1.125c 0.504 -0.531 1.242 -0.801 2.205 -0.801c 1.755 0 2.835 1.008 2.835 2.655c 0 0.738 -0.216 1.305 -0.657 1.746c -0.45 0.459 -1.098 0.702 -1.827 0.702c -0.612 0 -1.08 -0.153 -1.512 -0.477c 0.009 0.099 0.036 0.297 0.045 0.369Z "/></symbol><symbol id="g9D348D1DD39FF24D45FB41DFC6929E0A" overflow="visible"><path d="M 0 0m 4.725 3.654c 0.855 0.27 1.278 0.837 1.278 1.728c 0 0.477 -0.198 0.909 -0.549 1.233c -0.495 0.45 -1.197 0.675 -2.133 0.675c -1.638 0 -2.655 -0.756 -2.655 -1.962c 0 -0.495 0.162 -0.9 0.477 -1.224c 0.234 -0.225 0.441 -0.342 0.828 -0.45c -0.387 -0.081 -0.603 -0.171 -0.873 -0.36c -0.504 -0.351 -0.756 -0.855 -0.756 -1.503c 0 -1.35 1.098 -2.142 2.988 -2.142c 1.053 0 1.863 0.243 2.412 0.72c 0.378 0.333 0.585 0.837 0.585 1.449c 0 0.612 -0.207 1.08 -0.63 1.431c -0.261 0.225 -0.495 0.315 -0.972 0.405Z m -1.386 2.475c 0.711 0 1.161 -0.36 1.161 -0.918c 0 -0.594 -0.432 -0.945 -1.161 -0.945c -0.729 0 -1.179 0.36 -1.179 0.945c 0 0.558 0.459 0.918 1.179 0.918Z m 0 -3.132c 0.891 0 1.422 -0.405 1.422 -1.08c 0 -0.684 -0.522 -1.071 -1.44 -1.071c -0.891 0 -1.422 0.396 -1.422 1.062c 0 0.675 0.549 1.089 1.44 1.089Z "/></symbol><symbol id="g852000EFC34CFFDCF1CC5F7461DF1931" overflow="visible"><path d="M 0 0m 4.329 0c 0.486 0 0.792 -0.009 1.179 -0.045v 0.873c -0.315 -0.045 -0.684 -0.063 -1.161 -0.063h -2.781c 0.234 0.801 0.693 1.314 1.881 2.106c 1.026 0.684 1.251 0.864 1.539 1.224c 0.27 0.324 0.423 0.747 0.423 1.17c 0 1.098 -0.909 1.809 -2.313 1.809c -0.828 0 -1.467 -0.243 -1.89 -0.72c -0.306 -0.351 -0.459 -0.693 -0.585 -1.341l 0.909 -0.135c 0.072 0.441 0.144 0.657 0.306 0.891c 0.261 0.378 0.684 0.567 1.269 0.567c 0.855 0 1.404 -0.414 1.404 -1.071c 0 -0.54 -0.297 -0.927 -1.152 -1.503c -0.891 -0.603 -1.107 -0.756 -1.404 -1.017c -0.576 -0.504 -0.954 -1.017 -1.188 -1.611c -0.135 -0.342 -0.162 -0.486 -0.252 -1.17c 0.297 0.027 0.441 0.036 1.044 0.036Z "/></symbol><symbol id="g549DC38708F244BDC156D47AF33BCC53" overflow="visible"><path d="M 0 0m 1.332 5.796c 0.378 0.045 0.657 0.063 1.008 0.063h 0.396v -4.788c 0 -0.495 -0.027 -0.9 -0.072 -1.26h 1.647c -0.054 0.414 -0.072 0.756 -0.072 1.26v 4.635c 0 0.567 0.018 0.954 0.072 1.458c -0.351 -0.027 -0.477 -0.036 -1.017 -0.036h -0.981c -0.459 0 -0.684 0.009 -0.981 0.054Z "/></symbol><symbol id="gD8F5C49CE2DAD378408C9ACD0388FEA0" overflow="visible"><path d="M 0 0m 0.396 1.548c 0.162 -0.468 0.27 -0.675 0.477 -0.918c 0.441 -0.504 1.143 -0.765 2.097 -0.765c 0.855 0 1.548 0.234 1.998 0.675c 0.333 0.324 0.522 0.801 0.522 1.296c 0 0.522 -0.144 0.918 -0.432 1.233c -0.306 0.333 -0.657 0.486 -1.278 0.567c 0.432 0.09 0.621 0.162 0.846 0.324c 0.405 0.288 0.63 0.774 0.63 1.323c 0 1.098 -0.873 1.809 -2.223 1.809c -0.792 0 -1.422 -0.225 -1.845 -0.657c -0.252 -0.261 -0.369 -0.477 -0.531 -0.963l 0.9 -0.189c 0.09 0.315 0.153 0.459 0.279 0.612c 0.243 0.315 0.612 0.468 1.152 0.468c 0.873 0 1.386 -0.423 1.386 -1.125c 0 -0.342 -0.126 -0.648 -0.342 -0.864c -0.279 -0.27 -0.693 -0.396 -1.269 -0.396c -0.261 0 -0.495 0.018 -0.711 0.045v -0.828c 0.27 0.036 0.495 0.054 0.765 0.054c 1.161 0 1.773 -0.45 1.773 -1.314c 0 -0.819 -0.63 -1.332 -1.629 -1.332c -0.459 0 -0.837 0.108 -1.143 0.333c -0.261 0.189 -0.378 0.369 -0.513 0.819Z "/></symbol><symbol id="g6621CBA9930A61343FDA0558BFD5DCEE" overflow="visible"><path d="M 0 0m 6.129 7.164c -0.333 -0.027 -0.585 -0.036 -1.332 -0.036h -2.952c -0.576 0 -0.918 0.018 -1.341 0.063v -1.431c 0.369 0.045 0.684 0.063 1.26 0.063h 2.664c -0.765 -1.062 -1.134 -1.674 -1.548 -2.556c -0.495 -1.071 -0.756 -1.926 -1.026 -3.456h 1.719c 0.234 1.827 0.63 3.051 1.476 4.563c 0.432 0.765 0.693 1.143 1.08 1.539Z "/></symbol><symbol id="gF305C1051184C7F7BE29A9395229434" overflow="visible"><path d="M 0 0m 0.252 1.701c 0.315 0.027 0.576 0.036 1.089 0.036h 2.439v -0.738c 0 -0.423 -0.018 -0.693 -0.081 -0.999h 0.954c -0.054 0.324 -0.072 0.549 -0.072 0.99v 0.747h 0.333c 0.378 0 0.585 -0.018 0.927 -0.063v 0.855c -0.333 -0.045 -0.567 -0.063 -0.927 -0.063h -0.333v 2.952c 0 0.711 0.009 0.972 0.054 1.521h -0.837c -0.198 -0.324 -0.36 -0.54 -0.684 -0.936l -2.241 -2.772c -0.216 -0.279 -0.414 -0.504 -0.621 -0.738Z m 3.528 0.756h -2.574l 1.971 2.484c 0.288 0.351 0.468 0.594 0.648 0.864c -0.036 -0.441 -0.045 -0.711 -0.045 -1.188Z "/></symbol><symbol id="g95C512E80E08B95DC2C25260CBCD19EE" overflow="visible"><path d="M 0 0m 6.102 5.58c -0.216 0.576 -0.459 0.9 -0.855 1.197c -0.432 0.324 -1.035 0.495 -1.746 0.495c -1.053 0 -1.908 -0.468 -2.439 -1.341c -0.369 -0.603 -0.603 -1.602 -0.603 -2.583c 0 -1.179 0.288 -2.151 0.828 -2.799c 0.495 -0.594 1.242 -0.909 2.169 -0.909c 0.855 0 1.611 0.279 2.106 0.774c 0.432 0.441 0.702 1.107 0.702 1.755c 0 1.53 -0.972 2.466 -2.556 2.466c -0.486 0 -0.873 -0.081 -1.224 -0.261c -0.252 -0.126 -0.378 -0.234 -0.603 -0.486c 0.036 0.549 0.126 0.927 0.306 1.296c 0.279 0.585 0.72 0.891 1.314 0.891c 0.612 0 0.945 -0.243 1.134 -0.828Z m -1.305 -3.402c 0 -0.288 -0.063 -0.54 -0.18 -0.72c -0.234 -0.369 -0.675 -0.594 -1.179 -0.594c -0.801 0 -1.395 0.549 -1.395 1.305c 0 0.747 0.576 1.278 1.404 1.278c 0.864 0 1.35 -0.459 1.35 -1.269Z "/></symbol><symbol id="gE9512D4818C48A9E668327BC7C2B14E4" overflow="visible"><path d="M 0 0m 1.872 6.21h 2.115c 0.45 0 0.747 -0.018 1.107 -0.072v 0.873c -0.369 -0.054 -0.585 -0.072 -1.116 -0.072h -1.944c -0.513 0 -0.693 0.009 -0.963 0.045c 0.018 -0.279 0.018 -0.288 0.018 -0.315c 0 -0.252 0 -0.315 -0.036 -0.612l -0.198 -2.088c -0.027 -0.36 -0.054 -0.531 -0.126 -0.936l 0.801 -0.072c 0.081 0.189 0.126 0.261 0.243 0.378c 0.315 0.324 0.774 0.513 1.224 0.513c 0.999 0 1.593 -0.594 1.593 -1.584c 0 -0.999 -0.648 -1.656 -1.629 -1.656c -0.504 0 -0.936 0.18 -1.224 0.504c -0.126 0.153 -0.189 0.27 -0.279 0.531l -0.882 -0.234c 0.207 -0.45 0.333 -0.648 0.567 -0.882c 0.45 -0.441 1.053 -0.666 1.809 -0.666c 1.539 0 2.511 0.945 2.511 2.439c 0 1.359 -0.9 2.25 -2.268 2.25c -0.621 0 -1.125 -0.198 -1.566 -0.612c 0.054 0.252 0.054 0.252 0.063 0.405Z "/></symbol><symbol id="g7C8A2A79A7C108937BD0C922C8D447D3" overflow="visible"><path d="M 0 0m 0.54 1.296c 0.243 -0.549 0.414 -0.801 0.765 -1.08c 0.477 -0.378 1.107 -0.567 1.872 -0.567c 0.864 0 1.539 0.243 2.043 0.747c 0.612 0.603 0.981 1.845 0.981 3.267c 0 1.017 -0.207 1.881 -0.576 2.439c -0.504 0.747 -1.35 1.179 -2.331 1.179c -1.728 0 -2.88 -1.035 -2.88 -2.583c 0 -1.494 0.999 -2.448 2.565 -2.448c 0.513 0 0.972 0.108 1.332 0.306c 0.198 0.117 0.315 0.225 0.522 0.459c -0.072 -0.747 -0.162 -1.107 -0.342 -1.431c -0.27 -0.486 -0.684 -0.72 -1.251 -0.72c -0.405 0 -0.729 0.117 -0.945 0.351c -0.108 0.117 -0.162 0.216 -0.243 0.441Z m 2.637 2.151c -0.783 0 -1.296 0.513 -1.296 1.314c 0 0.774 0.567 1.314 1.359 1.314c 0.819 0 1.395 -0.54 1.395 -1.296c 0 -0.783 -0.603 -1.332 -1.458 -1.332Z "/></symbol><symbol id="g9CDA2C6032A6EC08B5C0A37A8ABE3792" overflow="visible"><path d="M 0 0m 5.409 5.616c -0.198 0.432 -0.324 0.63 -0.54 0.855c -0.387 0.387 -0.954 0.594 -1.629 0.594c -0.873 0 -1.521 -0.324 -2.025 -1.008c -0.432 -0.585 -0.693 -1.611 -0.693 -2.745c 0 -1.278 0.342 -2.322 0.945 -2.862c 0.405 -0.369 1.026 -0.576 1.701 -0.576c 1.44 0 2.412 0.954 2.412 2.358c 0 1.404 -0.891 2.286 -2.313 2.286c -0.603 0 -1.062 -0.153 -1.476 -0.504c -0.198 -0.162 -0.297 -0.279 -0.468 -0.558c 0.054 0.882 0.144 1.314 0.378 1.836c 0.315 0.702 0.828 1.062 1.512 1.062c 0.675 0 1.062 -0.288 1.341 -0.981Z m -2.223 -1.8c 0.963 0 1.548 -0.603 1.548 -1.602c 0 -0.351 -0.081 -0.684 -0.225 -0.918c -0.279 -0.432 -0.792 -0.702 -1.368 -0.702c -0.936 0 -1.638 0.693 -1.638 1.62c 0 0.927 0.711 1.602 1.683 1.602Z "/></symbol></defs></svg>